<mxfile host="app.diagrams.net" modified="2023-05-28T22:26:07.674Z" agent="Mozilla/5.0 (Windows NT 10.0; Win64; x64) AppleWebKit/537.36 (KHTML, like Gecko) Chrome/113.0.0.0 Safari/537.36" etag="KtFdqzvfM31d6YD1X9az" version="21.3.2" type="device" pages="2">
  <diagram name="Page-1" id="O16oIW7MTGFbL38wEt7E">
    <mxGraphModel dx="2876" dy="1097" grid="1" gridSize="10" guides="1" tooltips="1" connect="1" arrows="1" fold="1" page="1" pageScale="1" pageWidth="827" pageHeight="1169" math="0" shadow="0">
      <root>
        <mxCell id="0" />
        <mxCell id="1" parent="0" />
        <mxCell id="eCMuN70A0XHilftcNr7w-8" style="edgeStyle=orthogonalEdgeStyle;rounded=0;orthogonalLoop=1;jettySize=auto;html=1;exitX=1;exitY=0.5;exitDx=0;exitDy=0;entryX=0;entryY=0.5;entryDx=0;entryDy=0;" parent="1" source="eCMuN70A0XHilftcNr7w-1" target="eCMuN70A0XHilftcNr7w-4" edge="1">
          <mxGeometry relative="1" as="geometry" />
        </mxCell>
        <mxCell id="eCMuN70A0XHilftcNr7w-1" value="1" style="ellipse;whiteSpace=wrap;html=1;aspect=fixed;fillColor=#dae8fc;strokeColor=#6c8ebf;" parent="1" vertex="1">
          <mxGeometry x="479.94" y="130" width="40" height="40" as="geometry" />
        </mxCell>
        <mxCell id="eCMuN70A0XHilftcNr7w-2" value="&lt;div&gt;void helper_function(int n)&lt;/div&gt;&lt;div&gt;{&lt;/div&gt;&lt;div&gt;&lt;span style=&quot;background-color: rgb(204, 229, 255);&quot;&gt;&amp;nbsp; &amp;nbsp; pq.pop();&lt;/span&gt;&lt;/div&gt;&lt;div&gt;&lt;span style=&quot;background-color: rgb(204, 229, 255);&quot;&gt;&amp;nbsp; &amp;nbsp; stack_[n] = true;&lt;/span&gt;&lt;/div&gt;&lt;div&gt;&lt;span style=&quot;background-color: rgb(204, 229, 255);&quot;&gt;&amp;nbsp; &amp;nbsp; visited_childs = vector&amp;lt;bool&amp;gt;(number_of_tasks + 1, false);&lt;/span&gt;&lt;/div&gt;&lt;div&gt;&lt;span style=&quot;background-color: rgb(204, 229, 255);&quot;&gt;&amp;nbsp; &amp;nbsp; visited_parents = vector&amp;lt;bool&amp;gt;(number_of_tasks + 1, false);&lt;/span&gt;&lt;/div&gt;&lt;div&gt;&lt;br&gt;&lt;/div&gt;&lt;div&gt;&amp;nbsp; &amp;nbsp;&amp;nbsp;&lt;span style=&quot;background-color: rgb(255, 204, 204);&quot;&gt;if (am_I_a_bottleneck(n))&amp;nbsp; &amp;nbsp;&lt;/span&gt;&lt;/div&gt;&lt;div&gt;&amp;nbsp; &amp;nbsp; {&lt;/div&gt;&lt;div&gt;&lt;span style=&quot;background-color: rgb(255, 204, 204);&quot;&gt;&amp;nbsp; &amp;nbsp; &amp;nbsp; &amp;nbsp; cout &amp;lt;&amp;lt; n &amp;lt;&amp;lt; endl;&lt;/span&gt;&lt;/div&gt;&lt;div&gt;&amp;nbsp; &amp;nbsp; }&lt;/div&gt;&lt;div&gt;&lt;br&gt;&lt;/div&gt;&lt;div&gt;&amp;nbsp; &amp;nbsp; // call childs&lt;/div&gt;&lt;div&gt;&amp;nbsp; &amp;nbsp; &lt;span style=&quot;background-color: rgb(255, 230, 204);&quot;&gt;for (unsigned long int i = 0; i &amp;lt; childs[n].size(); ++i)&lt;/span&gt;&lt;/div&gt;&lt;div&gt;&amp;nbsp; &amp;nbsp; {&lt;/div&gt;&lt;div&gt;&lt;span style=&quot;background-color: rgb(255, 230, 204);&quot;&gt;&amp;nbsp; &amp;nbsp; &amp;nbsp; &amp;nbsp; int visit = childs[n][i];&lt;/span&gt;&lt;/div&gt;&lt;div&gt;&lt;span style=&quot;background-color: rgb(255, 230, 204);&quot;&gt;&amp;nbsp; &amp;nbsp; &amp;nbsp; &amp;nbsp; degree[visit]++;&lt;/span&gt;&lt;/div&gt;&lt;div&gt;&lt;br&gt;&lt;/div&gt;&lt;div&gt;&lt;span style=&quot;background-color: rgb(229, 204, 255);&quot;&gt;&amp;nbsp; &amp;nbsp; &amp;nbsp; &amp;nbsp; if (stack_[visit] == false &amp;amp;&amp;amp; (degree[visit] == (int)parents[visit].size()))&lt;/span&gt;&lt;/div&gt;&lt;div&gt;&amp;nbsp; &amp;nbsp; &amp;nbsp; &amp;nbsp; {&lt;/div&gt;&lt;div&gt;&amp;nbsp; &amp;nbsp; &amp;nbsp; &amp;nbsp; &amp;nbsp; &amp;nbsp; &lt;span style=&quot;background-color: rgb(229, 204, 255);&quot;&gt;pq.push(visit);&lt;/span&gt;&lt;/div&gt;&lt;div&gt;&amp;nbsp; &amp;nbsp; &amp;nbsp; &amp;nbsp; }&lt;/div&gt;&lt;div&gt;&amp;nbsp; &amp;nbsp; }&lt;/div&gt;&lt;div&gt;&lt;br&gt;&lt;/div&gt;&lt;div&gt;&amp;nbsp; &amp;nbsp; &lt;span style=&quot;background-color: rgb(204, 255, 204);&quot;&gt;if (!pq.empty())&lt;/span&gt;&lt;/div&gt;&lt;div&gt;&amp;nbsp; &amp;nbsp; {&lt;/div&gt;&lt;div&gt;&lt;span style=&quot;background-color: rgb(204, 229, 255);&quot;&gt;&amp;nbsp; &amp;nbsp; &amp;nbsp; &amp;nbsp; helper_function(pq.top());&lt;/span&gt;&lt;/div&gt;&lt;div&gt;&amp;nbsp; &amp;nbsp; }&lt;/div&gt;&lt;div&gt;}&lt;/div&gt;" style="text;html=1;strokeColor=none;fillColor=none;align=left;verticalAlign=middle;whiteSpace=wrap;rounded=0;" parent="1" vertex="1">
          <mxGeometry x="-90" y="40" width="400" height="440" as="geometry" />
        </mxCell>
        <mxCell id="eCMuN70A0XHilftcNr7w-27" style="edgeStyle=orthogonalEdgeStyle;orthogonalLoop=1;jettySize=auto;html=1;exitX=0;exitY=1;exitDx=0;exitDy=0;entryX=1;entryY=0;entryDx=0;entryDy=0;strokeColor=none;curved=1;" parent="1" source="eCMuN70A0XHilftcNr7w-4" target="eCMuN70A0XHilftcNr7w-6" edge="1">
          <mxGeometry relative="1" as="geometry" />
        </mxCell>
        <mxCell id="eCMuN70A0XHilftcNr7w-30" style="edgeStyle=orthogonalEdgeStyle;orthogonalLoop=1;jettySize=auto;html=1;exitX=0.5;exitY=1;exitDx=0;exitDy=0;entryX=0.5;entryY=0;entryDx=0;entryDy=0;curved=1;" parent="1" source="eCMuN70A0XHilftcNr7w-4" target="eCMuN70A0XHilftcNr7w-6" edge="1">
          <mxGeometry relative="1" as="geometry" />
        </mxCell>
        <mxCell id="eCMuN70A0XHilftcNr7w-31" style="edgeStyle=orthogonalEdgeStyle;orthogonalLoop=1;jettySize=auto;html=1;exitX=0.5;exitY=1;exitDx=0;exitDy=0;entryX=0.5;entryY=0;entryDx=0;entryDy=0;curved=1;" parent="1" source="eCMuN70A0XHilftcNr7w-4" target="eCMuN70A0XHilftcNr7w-5" edge="1">
          <mxGeometry relative="1" as="geometry" />
        </mxCell>
        <mxCell id="eCMuN70A0XHilftcNr7w-4" value="2" style="ellipse;whiteSpace=wrap;html=1;aspect=fixed;fillColor=#f8cecc;strokeColor=#b85450;" parent="1" vertex="1">
          <mxGeometry x="579.94" y="130" width="40" height="40" as="geometry" />
        </mxCell>
        <mxCell id="eCMuN70A0XHilftcNr7w-10" style="edgeStyle=orthogonalEdgeStyle;rounded=0;orthogonalLoop=1;jettySize=auto;html=1;exitX=0;exitY=0.5;exitDx=0;exitDy=0;" parent="1" source="eCMuN70A0XHilftcNr7w-5" target="eCMuN70A0XHilftcNr7w-6" edge="1">
          <mxGeometry relative="1" as="geometry" />
        </mxCell>
        <mxCell id="eCMuN70A0XHilftcNr7w-5" value="3" style="ellipse;whiteSpace=wrap;html=1;aspect=fixed;fillColor=#f8cecc;strokeColor=#b85450;" parent="1" vertex="1">
          <mxGeometry x="670" y="240" width="40" height="40" as="geometry" />
        </mxCell>
        <mxCell id="eCMuN70A0XHilftcNr7w-33" style="edgeStyle=orthogonalEdgeStyle;rounded=0;orthogonalLoop=1;jettySize=auto;html=1;exitX=0.5;exitY=1;exitDx=0;exitDy=0;entryX=0.5;entryY=0;entryDx=0;entryDy=0;" parent="1" source="eCMuN70A0XHilftcNr7w-6" target="eCMuN70A0XHilftcNr7w-13" edge="1">
          <mxGeometry relative="1" as="geometry" />
        </mxCell>
        <mxCell id="eCMuN70A0XHilftcNr7w-39" style="edgeStyle=orthogonalEdgeStyle;rounded=0;orthogonalLoop=1;jettySize=auto;html=1;" parent="1" source="eCMuN70A0XHilftcNr7w-6" target="eCMuN70A0XHilftcNr7w-19" edge="1">
          <mxGeometry relative="1" as="geometry" />
        </mxCell>
        <mxCell id="eCMuN70A0XHilftcNr7w-6" value="4" style="ellipse;whiteSpace=wrap;html=1;aspect=fixed;fillColor=#ffe6cc;strokeColor=#d79b00;" parent="1" vertex="1">
          <mxGeometry x="479.94" y="240" width="40" height="40" as="geometry" />
        </mxCell>
        <mxCell id="eCMuN70A0XHilftcNr7w-36" style="edgeStyle=orthogonalEdgeStyle;rounded=0;orthogonalLoop=1;jettySize=auto;html=1;exitX=1;exitY=0.5;exitDx=0;exitDy=0;entryX=0;entryY=0.5;entryDx=0;entryDy=0;" parent="1" source="eCMuN70A0XHilftcNr7w-13" target="eCMuN70A0XHilftcNr7w-15" edge="1">
          <mxGeometry relative="1" as="geometry" />
        </mxCell>
        <mxCell id="eCMuN70A0XHilftcNr7w-13" value="5" style="ellipse;whiteSpace=wrap;html=1;aspect=fixed;fillColor=#ffe6cc;strokeColor=#d79b00;" parent="1" vertex="1">
          <mxGeometry x="479.93999999999994" y="350" width="40" height="40" as="geometry" />
        </mxCell>
        <mxCell id="eCMuN70A0XHilftcNr7w-35" style="edgeStyle=orthogonalEdgeStyle;orthogonalLoop=1;jettySize=auto;html=1;exitX=0;exitY=0;exitDx=0;exitDy=0;entryX=1;entryY=1;entryDx=0;entryDy=0;curved=1;" parent="1" source="eCMuN70A0XHilftcNr7w-15" target="eCMuN70A0XHilftcNr7w-6" edge="1">
          <mxGeometry relative="1" as="geometry">
            <Array as="points">
              <mxPoint x="586" y="315" />
              <mxPoint x="514" y="315" />
            </Array>
          </mxGeometry>
        </mxCell>
        <mxCell id="eCMuN70A0XHilftcNr7w-41" style="edgeStyle=orthogonalEdgeStyle;rounded=0;orthogonalLoop=1;jettySize=auto;html=1;entryX=0;entryY=0.5;entryDx=0;entryDy=0;" parent="1" source="eCMuN70A0XHilftcNr7w-15" target="eCMuN70A0XHilftcNr7w-17" edge="1">
          <mxGeometry relative="1" as="geometry" />
        </mxCell>
        <mxCell id="eCMuN70A0XHilftcNr7w-15" value="6" style="ellipse;whiteSpace=wrap;html=1;aspect=fixed;fillColor=#e1d5e7;strokeColor=#9673a6;" parent="1" vertex="1">
          <mxGeometry x="579.94" y="350" width="40" height="40" as="geometry" />
        </mxCell>
        <mxCell id="eCMuN70A0XHilftcNr7w-38" style="edgeStyle=orthogonalEdgeStyle;orthogonalLoop=1;jettySize=auto;html=1;exitX=0;exitY=0;exitDx=0;exitDy=0;entryX=1;entryY=1;entryDx=0;entryDy=0;curved=1;" parent="1" source="eCMuN70A0XHilftcNr7w-17" target="eCMuN70A0XHilftcNr7w-6" edge="1">
          <mxGeometry relative="1" as="geometry">
            <Array as="points">
              <mxPoint x="676" y="295" />
              <mxPoint x="514" y="295" />
            </Array>
          </mxGeometry>
        </mxCell>
        <mxCell id="eCMuN70A0XHilftcNr7w-17" value="7" style="ellipse;whiteSpace=wrap;html=1;aspect=fixed;fillColor=#e1d5e7;strokeColor=#9673a6;" parent="1" vertex="1">
          <mxGeometry x="670" y="350" width="40" height="40" as="geometry" />
        </mxCell>
        <mxCell id="eCMuN70A0XHilftcNr7w-40" style="edgeStyle=orthogonalEdgeStyle;rounded=0;orthogonalLoop=1;jettySize=auto;html=1;exitX=0.5;exitY=0;exitDx=0;exitDy=0;entryX=0;entryY=0.5;entryDx=0;entryDy=0;" parent="1" source="eCMuN70A0XHilftcNr7w-19" target="eCMuN70A0XHilftcNr7w-1" edge="1">
          <mxGeometry relative="1" as="geometry" />
        </mxCell>
        <mxCell id="eCMuN70A0XHilftcNr7w-19" value="8" style="ellipse;whiteSpace=wrap;html=1;aspect=fixed;fillColor=#d5e8d4;strokeColor=#82b366;" parent="1" vertex="1">
          <mxGeometry x="360" y="240" width="40" height="40" as="geometry" />
        </mxCell>
      </root>
    </mxGraphModel>
  </diagram>
  <diagram id="Fwin-Mr0P4fmiFpTaS5Y" name="Page-2">
    <mxGraphModel dx="1434" dy="768" grid="1" gridSize="10" guides="1" tooltips="1" connect="1" arrows="1" fold="1" page="1" pageScale="1" pageWidth="850" pageHeight="1100" math="0" shadow="0">
      <root>
        <mxCell id="0" />
        <mxCell id="1" parent="0" />
        <mxCell id="jiBnepb1rR8q80mwuCDb-1" value="&lt;div&gt;void recursion(int node)&lt;/div&gt;&lt;div&gt;{&lt;/div&gt;&lt;div&gt;&amp;nbsp; &amp;nbsp;&lt;span style=&quot;background-color: rgb(218, 232, 252);&quot;&gt; bool leaf = true;&lt;/span&gt;&lt;/div&gt;&lt;div&gt;&amp;nbsp; &amp;nbsp; &lt;span style=&quot;background-color: rgb(241, 205, 205);&quot;&gt;for (size_t i = 0; i &amp;lt; childs[node].size(); ++i)&lt;/span&gt;&lt;/div&gt;&lt;div&gt;&amp;nbsp; &amp;nbsp; {&lt;/div&gt;&lt;div&gt;&amp;nbsp; &amp;nbsp; &amp;nbsp; &amp;nbsp; &lt;span style=&quot;background-color: rgb(153, 255, 201);&quot;&gt;leaf = false;&lt;/span&gt;&lt;/div&gt;&lt;div&gt;&lt;br&gt;&lt;/div&gt;&lt;div&gt;&amp;nbsp; &amp;nbsp; &amp;nbsp; &amp;nbsp; &lt;span style=&quot;background-color: rgb(255, 166, 240);&quot;&gt;if (dp[childs[node][i]] == -1)&lt;/span&gt;&lt;/div&gt;&lt;div&gt;&amp;nbsp; &amp;nbsp; &amp;nbsp; &amp;nbsp; {&lt;/div&gt;&lt;div&gt;&amp;nbsp; &amp;nbsp; &amp;nbsp; &amp;nbsp; &amp;nbsp; &amp;nbsp; &lt;span style=&quot;background-color: rgb(250, 255, 99);&quot;&gt;recursion(childs[node][i]);&lt;/span&gt;&lt;/div&gt;&lt;div&gt;&amp;nbsp; &amp;nbsp; &amp;nbsp; &amp;nbsp; }&lt;/div&gt;&lt;div&gt;&amp;nbsp; &amp;nbsp; }&lt;/div&gt;&lt;div&gt;&lt;br&gt;&lt;/div&gt;&lt;div&gt;&amp;nbsp; &amp;nbsp;&lt;span style=&quot;background-color: rgb(191, 164, 193);&quot;&gt; &lt;/span&gt;&lt;span style=&quot;background-color: rgb(190, 165, 192);&quot;&gt;if (leaf)&lt;/span&gt;&lt;/div&gt;&lt;div&gt;&amp;nbsp; &amp;nbsp; {&lt;/div&gt;&lt;div&gt;&amp;nbsp; &amp;nbsp; &amp;nbsp; &amp;nbsp; &lt;span style=&quot;background-color: rgb(254, 204, 134);&quot;&gt;dp[node] = time_[node];&lt;/span&gt;&lt;/div&gt;&lt;div&gt;&lt;span style=&quot;background-color: rgb(254, 204, 134);&quot;&gt;&amp;nbsp; &amp;nbsp; &amp;nbsp; &amp;nbsp; return;&lt;/span&gt;&lt;/div&gt;&lt;div&gt;&amp;nbsp; &amp;nbsp; }&lt;/div&gt;&lt;div&gt;&lt;br&gt;&lt;/div&gt;&lt;div&gt;&amp;nbsp; &amp;nbsp; &lt;span style=&quot;background-color: rgb(255, 102, 71);&quot;&gt;int max_time = 0;&lt;/span&gt;&lt;/div&gt;&lt;div&gt;&amp;nbsp; &amp;nbsp; &lt;span style=&quot;background-color: rgb(209, 255, 148);&quot;&gt;for (size_t i = 0; i &amp;lt; childs[node].size(); ++i)&lt;/span&gt;&lt;/div&gt;&lt;div&gt;&amp;nbsp; &amp;nbsp; {&lt;/div&gt;&lt;div&gt;&amp;nbsp; &amp;nbsp; &amp;nbsp; &amp;nbsp; &lt;span style=&quot;background-color: rgb(229, 184, 255);&quot;&gt;if (max_time &amp;lt; dp[childs[node][i]])&lt;/span&gt;&lt;/div&gt;&lt;div&gt;&amp;nbsp; &amp;nbsp; &amp;nbsp; &amp;nbsp; {&lt;/div&gt;&lt;div&gt;&amp;nbsp; &amp;nbsp; &amp;nbsp; &amp;nbsp; &amp;nbsp; &amp;nbsp; &lt;span style=&quot;background-color: rgb(255, 135, 175);&quot;&gt;max_time = dp[childs[node][i]];&lt;/span&gt;&lt;/div&gt;&lt;div&gt;&amp;nbsp; &amp;nbsp; &amp;nbsp; &amp;nbsp; }&lt;/div&gt;&lt;div&gt;&amp;nbsp; &amp;nbsp; }&lt;/div&gt;&lt;div&gt;&lt;span style=&quot;background-color: rgb(181, 255, 253);&quot;&gt;&amp;nbsp; &amp;nbsp; dp[node] = max_time + time_[node];&lt;/span&gt;&lt;/div&gt;&lt;div&gt;&lt;span style=&quot;background-color: rgb(181, 255, 253);&quot;&gt;&amp;nbsp; &amp;nbsp; return;&lt;/span&gt;&lt;/div&gt;&lt;div&gt;}&lt;/div&gt;" style="text;html=1;strokeColor=none;fillColor=none;align=left;verticalAlign=middle;whiteSpace=wrap;rounded=0;" vertex="1" parent="1">
          <mxGeometry x="60" y="220" width="400" height="440" as="geometry" />
        </mxCell>
        <mxCell id="jiBnepb1rR8q80mwuCDb-2" value="1" style="ellipse;whiteSpace=wrap;html=1;aspect=fixed;fillColor=#dae8fc;strokeColor=#6c8ebf;" vertex="1" parent="1">
          <mxGeometry x="639.94" y="210" width="40" height="40" as="geometry" />
        </mxCell>
        <mxCell id="jiBnepb1rR8q80mwuCDb-3" value="2" style="ellipse;whiteSpace=wrap;html=1;aspect=fixed;fillColor=#f8cecc;strokeColor=#b85450;" vertex="1" parent="1">
          <mxGeometry x="639.94" y="290" width="40" height="40" as="geometry" />
        </mxCell>
        <mxCell id="jiBnepb1rR8q80mwuCDb-4" style="edgeStyle=orthogonalEdgeStyle;rounded=0;orthogonalLoop=1;jettySize=auto;html=1;exitX=0.5;exitY=1;exitDx=0;exitDy=0;" edge="1" parent="1" source="jiBnepb1rR8q80mwuCDb-2" target="jiBnepb1rR8q80mwuCDb-3">
          <mxGeometry relative="1" as="geometry">
            <mxPoint x="690" y="-130" as="sourcePoint" />
            <mxPoint x="750" y="-130" as="targetPoint" />
          </mxGeometry>
        </mxCell>
        <mxCell id="jiBnepb1rR8q80mwuCDb-5" value="3" style="ellipse;whiteSpace=wrap;html=1;aspect=fixed;fillColor=#99FFC9;strokeColor=#66CC00;" vertex="1" parent="1">
          <mxGeometry x="700" y="335" width="40" height="40" as="geometry" />
        </mxCell>
        <mxCell id="jiBnepb1rR8q80mwuCDb-6" style="edgeStyle=orthogonalEdgeStyle;orthogonalLoop=1;jettySize=auto;html=1;curved=1;" edge="1" parent="1" target="jiBnepb1rR8q80mwuCDb-5">
          <mxGeometry relative="1" as="geometry">
            <mxPoint x="660" y="330" as="sourcePoint" />
            <mxPoint x="750" y="370" as="targetPoint" />
            <Array as="points">
              <mxPoint x="660" y="350" />
            </Array>
          </mxGeometry>
        </mxCell>
        <mxCell id="jiBnepb1rR8q80mwuCDb-7" style="edgeStyle=orthogonalEdgeStyle;rounded=0;orthogonalLoop=1;jettySize=auto;html=1;exitX=0.5;exitY=1;exitDx=0;exitDy=0;entryX=0.5;entryY=0;entryDx=0;entryDy=0;" edge="1" parent="1" source="jiBnepb1rR8q80mwuCDb-3" target="jiBnepb1rR8q80mwuCDb-9">
          <mxGeometry relative="1" as="geometry">
            <mxPoint x="659.69" y="370" as="sourcePoint" />
            <mxPoint x="660" y="410" as="targetPoint" />
          </mxGeometry>
        </mxCell>
        <mxCell id="jiBnepb1rR8q80mwuCDb-8" value="" style="edgeStyle=orthogonalEdgeStyle;rounded=0;orthogonalLoop=1;jettySize=auto;html=1;" edge="1" parent="1" source="jiBnepb1rR8q80mwuCDb-9" target="jiBnepb1rR8q80mwuCDb-17">
          <mxGeometry relative="1" as="geometry" />
        </mxCell>
        <mxCell id="jiBnepb1rR8q80mwuCDb-9" value="6" style="ellipse;whiteSpace=wrap;html=1;aspect=fixed;fillColor=#E6D0DE;strokeColor=#CC70C0;" vertex="1" parent="1">
          <mxGeometry x="639.94" y="375" width="40" height="40" as="geometry" />
        </mxCell>
        <mxCell id="jiBnepb1rR8q80mwuCDb-10" value="4" style="ellipse;whiteSpace=wrap;html=1;aspect=fixed;fillColor=#FFA6F0;strokeColor=#CC00CC;" vertex="1" parent="1">
          <mxGeometry x="749.94" y="290" width="40" height="40" as="geometry" />
        </mxCell>
        <mxCell id="jiBnepb1rR8q80mwuCDb-11" value="5" style="ellipse;whiteSpace=wrap;html=1;aspect=fixed;fillColor=#FAFF63;strokeColor=#ff9500;" vertex="1" parent="1">
          <mxGeometry x="700" y="240" width="40" height="40" as="geometry" />
        </mxCell>
        <mxCell id="jiBnepb1rR8q80mwuCDb-12" style="edgeStyle=orthogonalEdgeStyle;orthogonalLoop=1;jettySize=auto;html=1;curved=1;exitX=1;exitY=0.5;exitDx=0;exitDy=0;" edge="1" parent="1" source="jiBnepb1rR8q80mwuCDb-5" target="jiBnepb1rR8q80mwuCDb-10">
          <mxGeometry relative="1" as="geometry">
            <mxPoint x="729.94" y="355" as="sourcePoint" />
            <mxPoint x="700.94" y="360" as="targetPoint" />
            <Array as="points">
              <mxPoint x="770" y="355" />
            </Array>
          </mxGeometry>
        </mxCell>
        <mxCell id="jiBnepb1rR8q80mwuCDb-13" style="edgeStyle=orthogonalEdgeStyle;orthogonalLoop=1;jettySize=auto;html=1;curved=1;entryX=1;entryY=0.5;entryDx=0;entryDy=0;" edge="1" parent="1" source="jiBnepb1rR8q80mwuCDb-10" target="jiBnepb1rR8q80mwuCDb-11">
          <mxGeometry relative="1" as="geometry">
            <mxPoint x="769.94" y="280" as="sourcePoint" />
            <mxPoint x="729.94" y="260" as="targetPoint" />
            <Array as="points">
              <mxPoint x="770" y="260" />
            </Array>
          </mxGeometry>
        </mxCell>
        <mxCell id="jiBnepb1rR8q80mwuCDb-14" style="edgeStyle=orthogonalEdgeStyle;orthogonalLoop=1;jettySize=auto;html=1;curved=1;entryX=0.5;entryY=0;entryDx=0;entryDy=0;exitX=0.002;exitY=0.473;exitDx=0;exitDy=0;exitPerimeter=0;" edge="1" parent="1" source="jiBnepb1rR8q80mwuCDb-11" target="jiBnepb1rR8q80mwuCDb-3">
          <mxGeometry relative="1" as="geometry">
            <mxPoint x="698" y="259" as="sourcePoint" />
            <mxPoint x="570" y="260" as="targetPoint" />
            <Array as="points">
              <mxPoint x="690" y="259" />
              <mxPoint x="660" y="259" />
            </Array>
          </mxGeometry>
        </mxCell>
        <mxCell id="jiBnepb1rR8q80mwuCDb-15" style="edgeStyle=orthogonalEdgeStyle;rounded=0;orthogonalLoop=1;jettySize=auto;html=1;exitX=0;exitY=0.5;exitDx=0;exitDy=0;" edge="1" parent="1" source="jiBnepb1rR8q80mwuCDb-10">
          <mxGeometry relative="1" as="geometry">
            <mxPoint x="670" y="340" as="sourcePoint" />
            <mxPoint x="680" y="310" as="targetPoint" />
          </mxGeometry>
        </mxCell>
        <mxCell id="jiBnepb1rR8q80mwuCDb-16" value="7" style="ellipse;whiteSpace=wrap;html=1;aspect=fixed;fillColor=#FFD966;strokeColor=#663300;" vertex="1" parent="1">
          <mxGeometry x="699.94" y="415" width="40" height="40" as="geometry" />
        </mxCell>
        <mxCell id="jiBnepb1rR8q80mwuCDb-17" value="8" style="ellipse;whiteSpace=wrap;html=1;aspect=fixed;fillColor=#FF6647;strokeColor=#990000;" vertex="1" parent="1">
          <mxGeometry x="639.94" y="450" width="40" height="40" as="geometry" />
        </mxCell>
        <mxCell id="jiBnepb1rR8q80mwuCDb-18" style="edgeStyle=orthogonalEdgeStyle;orthogonalLoop=1;jettySize=auto;html=1;curved=1;exitX=0.5;exitY=1;exitDx=0;exitDy=0;" edge="1" parent="1" source="jiBnepb1rR8q80mwuCDb-9" target="jiBnepb1rR8q80mwuCDb-16">
          <mxGeometry relative="1" as="geometry">
            <mxPoint x="659" y="415" as="sourcePoint" />
            <mxPoint x="700" y="435" as="targetPoint" />
            <Array as="points">
              <mxPoint x="660" y="435" />
            </Array>
          </mxGeometry>
        </mxCell>
        <mxCell id="jiBnepb1rR8q80mwuCDb-19" value="" style="edgeStyle=orthogonalEdgeStyle;rounded=0;orthogonalLoop=1;jettySize=auto;html=1;" edge="1" parent="1" source="jiBnepb1rR8q80mwuCDb-20" target="jiBnepb1rR8q80mwuCDb-21">
          <mxGeometry relative="1" as="geometry" />
        </mxCell>
        <mxCell id="jiBnepb1rR8q80mwuCDb-20" value="9" style="ellipse;whiteSpace=wrap;html=1;aspect=fixed;fillColor=#D1FF94;strokeColor=#009900;" vertex="1" parent="1">
          <mxGeometry x="639.94" y="520" width="40" height="40" as="geometry" />
        </mxCell>
        <mxCell id="jiBnepb1rR8q80mwuCDb-21" value="12" style="ellipse;whiteSpace=wrap;html=1;aspect=fixed;fillColor=#B5FFFD;strokeColor=#6B6BFF;" vertex="1" parent="1">
          <mxGeometry x="639.94" y="590" width="40" height="40" as="geometry" />
        </mxCell>
        <mxCell id="jiBnepb1rR8q80mwuCDb-22" value="" style="edgeStyle=orthogonalEdgeStyle;rounded=0;orthogonalLoop=1;jettySize=auto;html=1;" edge="1" parent="1">
          <mxGeometry relative="1" as="geometry">
            <mxPoint x="659.8299999999999" y="490" as="sourcePoint" />
            <mxPoint x="660" y="520" as="targetPoint" />
          </mxGeometry>
        </mxCell>
        <mxCell id="jiBnepb1rR8q80mwuCDb-23" value="10" style="ellipse;whiteSpace=wrap;html=1;aspect=fixed;fillColor=#E5B8FF;strokeColor=#990099;" vertex="1" parent="1">
          <mxGeometry x="700" y="560" width="40" height="40" as="geometry" />
        </mxCell>
        <mxCell id="jiBnepb1rR8q80mwuCDb-24" style="edgeStyle=orthogonalEdgeStyle;orthogonalLoop=1;jettySize=auto;html=1;curved=1;exitX=0.5;exitY=1;exitDx=0;exitDy=0;entryX=0;entryY=0.5;entryDx=0;entryDy=0;" edge="1" parent="1" target="jiBnepb1rR8q80mwuCDb-23">
          <mxGeometry relative="1" as="geometry">
            <mxPoint x="660" y="560" as="sourcePoint" />
            <mxPoint x="700" y="580" as="targetPoint" />
            <Array as="points">
              <mxPoint x="660" y="580" />
            </Array>
          </mxGeometry>
        </mxCell>
        <mxCell id="jiBnepb1rR8q80mwuCDb-25" value="11" style="ellipse;whiteSpace=wrap;html=1;aspect=fixed;fillColor=#FF87AF;strokeColor=#660066;" vertex="1" parent="1">
          <mxGeometry x="699.94" y="490" width="40" height="40" as="geometry" />
        </mxCell>
        <mxCell id="jiBnepb1rR8q80mwuCDb-26" style="edgeStyle=orthogonalEdgeStyle;orthogonalLoop=1;jettySize=auto;html=1;curved=1;exitX=0.5;exitY=0;exitDx=0;exitDy=0;entryX=1;entryY=0.5;entryDx=0;entryDy=0;" edge="1" parent="1" source="jiBnepb1rR8q80mwuCDb-23" target="jiBnepb1rR8q80mwuCDb-20">
          <mxGeometry relative="1" as="geometry">
            <mxPoint x="670" y="570" as="sourcePoint" />
            <mxPoint x="710" y="590" as="targetPoint" />
            <Array as="points">
              <mxPoint x="720" y="540" />
            </Array>
          </mxGeometry>
        </mxCell>
        <mxCell id="jiBnepb1rR8q80mwuCDb-27" value="" style="edgeStyle=orthogonalEdgeStyle;rounded=0;orthogonalLoop=1;jettySize=auto;html=1;entryX=0.5;entryY=1;entryDx=0;entryDy=0;" edge="1" parent="1" source="jiBnepb1rR8q80mwuCDb-23" target="jiBnepb1rR8q80mwuCDb-25">
          <mxGeometry relative="1" as="geometry">
            <mxPoint x="669.8299999999999" y="500" as="sourcePoint" />
            <mxPoint x="670" y="530" as="targetPoint" />
          </mxGeometry>
        </mxCell>
        <mxCell id="jiBnepb1rR8q80mwuCDb-28" style="edgeStyle=orthogonalEdgeStyle;orthogonalLoop=1;jettySize=auto;html=1;curved=1;exitX=0;exitY=0.5;exitDx=0;exitDy=0;entryX=1;entryY=0;entryDx=0;entryDy=0;" edge="1" parent="1" source="jiBnepb1rR8q80mwuCDb-25" target="jiBnepb1rR8q80mwuCDb-20">
          <mxGeometry relative="1" as="geometry">
            <mxPoint x="670" y="425" as="sourcePoint" />
            <mxPoint x="710" y="445" as="targetPoint" />
            <Array as="points">
              <mxPoint x="674" y="510" />
            </Array>
          </mxGeometry>
        </mxCell>
      </root>
    </mxGraphModel>
  </diagram>
</mxfile>
